# xmcd
#
# Track frame offsets:
#  150
#  13390
#  29762
#  45362
#  61515
#  74155
#  88652
#  100805
#  113895
#  127992
#  144762
#  157517
#  170509
#  190640
#
# Disc length: 2742 seconds
#
# Revision: 1
# Processed by: cddbd v1.5.1PL2 Copyright (c) Steve Scherf et al.
# Submitted via: Collectorz.com_Music_Collector 6.10
#
DISCID=b00ab40e
DTITLE=The Brian Fraser Trio - Passing The Time
DYEAR=2005
DGENRE=Blues
TTITLE0=If The Cap Fits
TTITLE1=Backwood Town
TTITLE2=Nobody's Fault But Mine
TTITLE3=New England Highway
TTITLE4=Thredbo
TTITLE5=Against The Wall
TTITLE6=Passing The Time
TTITLE7=Afi
TTITLE8=Can't Judge A Book
TTITLE9=Ain't No Love
TTITLE10=Guitar Rag
TTITLE11=One Eye On The Mountain
TTITLE12=No One's Coming Home
TTITLE13=Albatross
EXTD=
EXTT0=
EXTT1=
EXTT2=
EXTT3=
EXTT4=
EXTT5=
EXTT6=
EXTT7=
EXTT8=
EXTT9=
EXTT10=
EXTT11=
EXTT12=
EXTT13=
PLAYORDER=
